<?xml version="1.0" encoding="utf-8"?><svg xmlns="http://www.w3.org/2000/svg" xmlns:xlink="http://www.w3.org/1999/xlink"><symbol fill="none" viewBox="0 0 25 24" id="chevron-right" xmlns="http://www.w3.org/2000/svg"><path d="m9.5 18 6-6-6-6" stroke="#494949" stroke-width="1.5" stroke-linecap="round" stroke-linejoin="round"/></symbol><symbol fill="none" viewBox="0 0 25 25" id="compass" xmlns="http://www.w3.org/2000/svg"><path d="M12.441 22.685c5.523 0 10-4.478 10-10 0-5.523-4.477-10-10-10-5.522 0-10 4.477-10 10 0 5.522 4.478 10 10 10Z" stroke="#A54A95" stroke-width="2" stroke-linecap="round" stroke-linejoin="round"/><path d="m16.681 8.444-2.12 6.36-6.36 2.12 2.12-6.36 6.36-2.12Z" stroke="#A54A95" stroke-width="2" stroke-linecap="round" stroke-linejoin="round"/></symbol><symbol fill="none" viewBox="0 0 25 24" id="dollar-sign" xmlns="http://www.w3.org/2000/svg"><path d="M12.5 1v22M17.5 5H10a3.5 3.5 0 1 0 0 7h5a3.5 3.5 0 1 1 0 7H6.5" stroke="#2D7BC0" stroke-width="2" stroke-linecap="round" stroke-linejoin="round"/></symbol><symbol fill="none" viewBox="0 0 25 25" id="dots-horizontal" xmlns="http://www.w3.org/2000/svg"><path d="M12.826 13.205a1 1 0 1 0 0-2 1 1 0 0 0 0 2ZM19.826 13.205a1 1 0 1 0 0-2 1 1 0 0 0 0 2ZM5.826 13.205a1 1 0 1 0 0-2 1 1 0 0 0 0 2Z" stroke="#F68235" stroke-width="2" stroke-linecap="round" stroke-linejoin="round"/></symbol><symbol fill="none" viewBox="0 0 25 24" id="heart" xmlns="http://www.w3.org/2000/svg"><path d="M21.34 4.61a5.5 5.5 0 0 0-7.78 0L12.5 5.67l-1.06-1.06a5.501 5.501 0 1 0-7.78 7.78l1.06 1.06 7.78 7.78 7.78-7.78 1.06-1.06a5.5 5.5 0 0 0 0-7.78Z" stroke="#676767" stroke-width="1.5" stroke-linecap="round" stroke-linejoin="round"/></symbol><symbol fill="none" viewBox="0 0 25 25" id="home" xmlns="http://www.w3.org/2000/svg"><path d="m3.32 9.665 9-7 9 7v11a2 2 0 0 1-2 2h-14a2 2 0 0 1-2-2v-11Z" stroke="#77B747" stroke-width="2" stroke-linecap="round" stroke-linejoin="round"/><path d="M9.32 22.665v-10h6v10" stroke="#77B747" stroke-width="2" stroke-linecap="round" stroke-linejoin="round"/></symbol><symbol fill="none" viewBox="0 0 23 24" id="map-pin" xmlns="http://www.w3.org/2000/svg"><g clip-path="url(#ga)" stroke="#979797" stroke-width="1.5" stroke-linecap="round" stroke-linejoin="round"><path d="M20.125 10.083c0 6.708-8.625 12.458-8.625 12.458s-8.625-5.75-8.625-12.458a8.625 8.625 0 0 1 17.25 0Z"/><path d="M11.5 12.958a2.875 2.875 0 1 0 0-5.75 2.875 2.875 0 0 0 0 5.75Z"/></g><defs><clipPath id="ga"><path fill="#fff" transform="translate(0 .5)" d="M0 0h23v23H0z"/></clipPath></defs></symbol><symbol fill="none" viewBox="0 0 19 19" id="plus-header" xmlns="http://www.w3.org/2000/svg"><path d="M9.5 3.958v11.083M3.959 9.5h11.083" stroke="#fff" stroke-width="2" stroke-linecap="round" stroke-linejoin="round"/></symbol><symbol fill="none" viewBox="0 0 25 25" id="search-grey" xmlns="http://www.w3.org/2000/svg"><path d="M11.458 19.792a8.333 8.333 0 1 0 0-16.667 8.333 8.333 0 0 0 0 16.667ZM21.875 21.875l-4.531-4.531" stroke="#979797" stroke-width="1.5" stroke-linecap="round" stroke-linejoin="round"/></symbol><symbol fill="none" viewBox="0 0 25 26" id="search-white" xmlns="http://www.w3.org/2000/svg"><path d="M11.458 20.167a8.333 8.333 0 1 0 0-16.667 8.333 8.333 0 0 0 0 16.667ZM21.875 22.25l-4.531-4.531" stroke="#fff" stroke-width="2" stroke-linecap="round" stroke-linejoin="round"/></symbol><symbol fill="none" viewBox="0 0 25 24" id="thumbs-up" xmlns="http://www.w3.org/2000/svg"><path d="m7.5 11 4-9a3 3 0 0 1 3 3v4h5.66a2 2 0 0 1 2 2.3l-1.38 9a2 2 0 0 1-2 1.7H7.5m0-11v11m0-11h-3a2 2 0 0 0-2 2v7a2 2 0 0 0 2 2h3" stroke="#E93740" stroke-width="2" stroke-linecap="round" stroke-linejoin="round"/></symbol><symbol fill="none" viewBox="0 0 19 19" id="user-header" xmlns="http://www.w3.org/2000/svg"><path d="M15.833 16.625v-1.583a3.167 3.167 0 0 0-3.167-3.167H6.333a3.167 3.167 0 0 0-3.167 3.167v1.583M9.5 8.708a3.167 3.167 0 1 0 0-6.333 3.167 3.167 0 0 0 0 6.333Z" stroke="#E93740" stroke-width="2" stroke-linecap="round" stroke-linejoin="round"/></symbol></svg>