<?xml version="1.0" encoding="utf-8"?><svg xmlns="http://www.w3.org/2000/svg" xmlns:xlink="http://www.w3.org/1999/xlink"><symbol fill="none" viewBox="0 0 23 24" id="map-pin" xmlns="http://www.w3.org/2000/svg"><g clip-path="url(#aa)" stroke="#979797" stroke-width="1.5" stroke-linecap="round" stroke-linejoin="round"><path d="M20.125 10.083c0 6.708-8.625 12.458-8.625 12.458s-8.625-5.75-8.625-12.458a8.625 8.625 0 0 1 17.25 0Z"/><path d="M11.5 12.958a2.875 2.875 0 1 0 0-5.75 2.875 2.875 0 0 0 0 5.75Z"/></g><defs><clipPath id="aa"><path fill="#fff" transform="translate(0 .5)" d="M0 0h23v23H0z"/></clipPath></defs></symbol><symbol fill="none" viewBox="0 0 19 19" id="plus-header" xmlns="http://www.w3.org/2000/svg"><path d="M9.5 3.958v11.083M3.959 9.5h11.083" stroke="#fff" stroke-width="2" stroke-linecap="round" stroke-linejoin="round"/></symbol><symbol fill="none" viewBox="0 0 25 25" id="search-grey" xmlns="http://www.w3.org/2000/svg"><path d="M11.458 19.792a8.333 8.333 0 1 0 0-16.667 8.333 8.333 0 0 0 0 16.667ZM21.875 21.875l-4.531-4.531" stroke="#979797" stroke-width="1.5" stroke-linecap="round" stroke-linejoin="round"/></symbol><symbol fill="none" viewBox="0 0 25 26" id="search-white" xmlns="http://www.w3.org/2000/svg"><path d="M11.458 20.167a8.333 8.333 0 1 0 0-16.667 8.333 8.333 0 0 0 0 16.667ZM21.875 22.25l-4.531-4.531" stroke="#fff" stroke-width="2" stroke-linecap="round" stroke-linejoin="round"/></symbol><symbol fill="none" viewBox="0 0 19 19" id="user-header" xmlns="http://www.w3.org/2000/svg"><path d="M15.833 16.625v-1.583a3.167 3.167 0 0 0-3.167-3.167H6.333a3.167 3.167 0 0 0-3.167 3.167v1.583M9.5 8.708a3.167 3.167 0 1 0 0-6.333 3.167 3.167 0 0 0 0 6.333Z" stroke="#E93740" stroke-width="2" stroke-linecap="round" stroke-linejoin="round"/></symbol></svg>